<?xml version="1.0" encoding="UTF-8" standalone="no"?>
<!-- Created with Inkscape (http://www.inkscape.org/) -->

<svg
   xmlns:dc="http://purl.org/dc/elements/1.1/"
   xmlns:cc="http://creativecommons.org/ns#"
   xmlns:rdf="http://www.w3.org/1999/02/22-rdf-syntax-ns#"
   xmlns:svg="http://www.w3.org/2000/svg"
   xmlns="http://www.w3.org/2000/svg"
   xmlns:sodipodi="http://sodipodi.sourceforge.net/DTD/sodipodi-0.dtd"
   xmlns:inkscape="http://www.inkscape.org/namespaces/inkscape"
   id="svg6549"
   sodipodi:docname="ce_wiz.svg"
   inkscape:export-ydpi="19.339426"
   inkscape:export-filename="C:\Users\Luca.CYPERFECTION\projekte\CYDEVOPS-PHPFORM\wordpress\typo3conf\ext\cyz_address\ce_wiz.png"
   viewBox="0 0 244.99999 233"
   inkscape:export-xdpi="19.339426"
   version="1.1"
   inkscape:version="0.92.2 (5c3e80d, 2017-08-06)"
   width="245"
   height="233">
  <defs
     id="defs6551">
    <clipPath
       id="clipPath594"
       clipPathUnits="userSpaceOnUse">
      <path
         id="path596"
         inkscape:connector-curvature="0"
         d="m 1388.5,4235.1 c 0,0 178.55,301.54 445.04,303.91 266.5,2.33 558.43,-112.31 558.43,-112.31 v 703.51 703.51 c 0,0 -277.41,112.67 -558.43,112.28 -281.02,-0.38 -445.04,-303.91 -445.04,-303.91 v -703.5 -703.49" />
    </clipPath>
    <clipPath
       id="clipPath574"
       clipPathUnits="userSpaceOnUse">
      <path
         id="path576"
         inkscape:connector-curvature="0"
         d="m 1388.5,4235.1 c 0,0 291.5,195.39 557.98,197.75 266.49,2.34 558.45,-112.31 558.45,-112.31 v 703.51 703.51 c 0,0 -277.43,112.68 -558.45,112.3 -281.01,-0.39 -557.98,-197.77 -557.98,-197.77 v -703.5 -703.49" />
    </clipPath>
    <clipPath
       id="clipPath552"
       clipPathUnits="userSpaceOnUse">
      <path
         id="path554"
         inkscape:connector-curvature="0"
         d="m 1388.5,4235.1 c 0,0 307.49,109.94 588.16,112.28 280.67,2.35 588.17,-112.28 588.17,-112.28 v 703.49 703.5 c 0,0 -292.19,112.69 -588.17,112.3 -295.98,-0.39 -588.16,-112.3 -588.16,-112.3 v -703.5 -703.49" />
    </clipPath>
    <clipPath
       id="clipPath532"
       clipPathUnits="userSpaceOnUse">
      <path
         id="path534"
         inkscape:connector-curvature="0"
         d="m 1389,4235.1 c 0,0 -178.54,301.54 -445.03,303.91 -266.49,2.33 -558.43,-112.31 -558.43,-112.31 v 703.51 703.51 c 0,0 277.42,112.67 558.43,112.28 281.02,-0.38 445.03,-303.91 445.03,-303.91 v -703.5 -703.49" />
    </clipPath>
    <clipPath
       id="clipPath512"
       clipPathUnits="userSpaceOnUse">
      <path
         id="path514"
         inkscape:connector-curvature="0"
         d="m 1389,4235.1 c 0,0 -291.49,195.39 -557.99,197.75 -266.48,2.34 -558.44,-112.31 -558.44,-112.31 v 703.51 703.51 c 0,0 277.42,112.68 558.44,112.3 281.03,-0.39 557.99,-197.77 557.99,-197.77 v -703.5 -703.49" />
    </clipPath>
    <clipPath
       id="clipPath492"
       clipPathUnits="userSpaceOnUse">
      <path
         id="path494"
         inkscape:connector-curvature="0"
         d="m 1389,4235.1 c 0,0 -307.48,109.94 -588.16,112.28 -280.67,2.35 -588.16,-112.28 -588.16,-112.28 v 703.49 703.5 c 0,0 292.18,112.69 588.16,112.3 295.98,-0.39 588.16,-112.3 588.16,-112.3 v -703.5 -703.49" />
    </clipPath>
    <clipPath
       id="clipPath470"
       clipPathUnits="userSpaceOnUse">
      <path
         id="path472"
         inkscape:connector-curvature="0"
         d="m 2019.5,5773.5 c -312.25,-0.4 -578.25,-100.59 -578.25,-100.59 -28.92,-10.88 -76.23,-10.88 -105.14,0 0,0 -266,100.19 -578.24,100.59 -317.58,0.42 -578.68,-100.26 -578.68,-100.26 -28.828,-11.13 -52.411,-45.49 -52.411,-76.39 v -1397.4 c 0,-30.9 23.684,-47.34 52.637,-36.54 0,0 277.29,103.38 578.46,100.86 294.34,-2.46 575.31,-46.41 575.31,-46.41 30.53,-4.78 80.47,-4.78 110.99,0 0,0 280.97,43.95 575.33,46.41 301.14,2.52 578.44,-100.86 578.44,-100.86 28.96,-10.8 52.64,5.64 52.64,36.54 v 1397.4 c 0,30.9 -23.58,65.26 -52.41,76.39 0,0 -261.1,100.68 -578.67,100.26" />
    </clipPath>
  </defs>
  <sodipodi:namedview
     id="base"
     bordercolor="#666666"
     inkscape:pageshadow="2"
     inkscape:window-y="-8"
     fit-margin-left="0"
     pagecolor="#ffffff"
     inkscape:window-height="1017"
     inkscape:window-maximized="1"
     inkscape:zoom="1.4142136"
     inkscape:window-x="-8"
     showgrid="false"
     borderopacity="1.0"
     inkscape:current-layer="layer2"
     inkscape:cx="386.13158"
     inkscape:cy="160.97511"
     fit-margin-top="0"
     fit-margin-right="0"
     fit-margin-bottom="0"
     inkscape:window-width="1920"
     inkscape:pageopacity="0.0"
     inkscape:document-units="px" />
  <g
     inkscape:groupmode="layer"
     id="layer2"
     inkscape:label="Layer 2"
     style="display:inline"
     transform="translate(-33,-1.8699961)">
    <path
       style="fill:#916f6f;stroke-width:0.50507629"
       d="m 153.43026,186.18262 c -3.11805,-4.15928 -10.13134,-11.17284 -14.39467,-14.39521 -4.24905,-3.21158 -12.44135,-7.31726 -16.80468,-8.42188 -11.49916,-2.91114 -34.665165,0.12186 -57.508921,7.52933 l -5.235913,1.69784 V 104.52185 36.451008 l 2.904188,-1.036519 c 14.133392,-5.044281 28.749907,-8.193401 43.090516,-9.283829 9.2679,-0.70471 14.23858,-0.231511 20.31325,1.933781 9.89009,3.525283 20.2361,12.066286 27.39868,22.61859 l 2.76945,4.080098 -0.12953,67.225661 -0.12953,67.22566 z"
       id="path3746"
       inkscape:connector-curvature="0" />
    <path
       style="fill:#916f6f;stroke-width:0.50507629"
       d="m 153.43026,186.18262 c -3.11805,-4.15928 -10.13134,-11.17284 -14.39467,-14.39521 -4.24905,-3.21158 -12.44135,-7.31726 -16.80468,-8.42188 -11.49916,-2.91114 -34.665165,0.12186 -57.508921,7.52933 l -5.235913,1.69784 V 104.52185 36.451008 l 2.904188,-1.036519 c 14.133392,-5.044281 28.749907,-8.193401 43.090516,-9.283829 9.2679,-0.70471 14.23858,-0.231511 20.31325,1.933781 9.89009,3.525283 20.2361,12.066286 27.39868,22.61859 l 2.76945,4.080098 -0.12953,67.225661 -0.12953,67.22566 z"
       id="path3748"
       inkscape:connector-curvature="0" />
    <path
       style="fill:#916f6f;stroke-width:0.50507629"
       d="m 153.43026,186.18262 c -3.11805,-4.15928 -10.13134,-11.17284 -14.39467,-14.39521 -4.24905,-3.21158 -12.44135,-7.31726 -16.80468,-8.42188 -11.49916,-2.91114 -34.665165,0.12186 -57.508921,7.52933 l -5.235913,1.69784 V 104.52185 36.451008 l 2.904188,-1.036519 c 14.133392,-5.044281 28.749907,-8.193401 43.090516,-9.283829 9.2679,-0.70471 14.23858,-0.231511 20.31325,1.933781 9.89009,3.525283 20.2361,12.066286 27.39868,22.61859 l 2.76945,4.080098 -0.12953,67.225661 -0.12953,67.22566 z"
       id="path3750"
       inkscape:connector-curvature="0" />
    <path
       style="fill:#916f6f;stroke-width:0.50507629"
       d="m 153.43026,186.18262 c -3.11805,-4.15928 -10.13134,-11.17284 -14.39467,-14.39521 -4.24905,-3.21158 -12.44135,-7.31726 -16.80468,-8.42188 -11.49916,-2.91114 -34.665165,0.12186 -57.508921,7.52933 l -5.235913,1.69784 V 104.52185 36.451008 l 2.904188,-1.036519 c 14.133392,-5.044281 28.749907,-8.193401 43.090516,-9.283829 9.2679,-0.70471 14.23858,-0.231511 20.31325,1.933781 9.89009,3.525283 20.2361,12.066286 27.39868,22.61859 l 2.76945,4.080098 -0.12953,67.225661 -0.12953,67.22566 z"
       id="path3752"
       inkscape:connector-curvature="0" />
    <path
       style="fill:#916f6f;stroke-width:0.50507629"
       d="M 157.97595,122.03597 V 54.639816 l 3.15672,-4.474447 c 4.51755,-6.40332 11.8188,-13.612157 17.52244,-17.300666 9.31342,-6.022932 17.027,-7.742046 30.12871,-6.714742 14.04987,1.101649 27.97198,4.084223 41.99989,8.997755 l 3.66181,1.282614 v 68.08119 68.08118 l -5.42957,-1.76364 c -22.73634,-7.3852 -45.75895,-10.3904 -57.2691,-7.47549 -4.35901,1.1039 -12.58133,5.20396 -16.67923,8.31709 -4.50651,3.42355 -10.13999,8.99799 -13.96035,13.81404 l -3.13132,3.94743 z"
       id="path3754"
       inkscape:connector-curvature="0" />
    <path
       style="fill:#916f6f;stroke-width:0.50507629"
       d="M 157.97595,122.03597 V 54.639816 l 3.15672,-4.474447 c 4.51755,-6.40332 11.8188,-13.612157 17.52244,-17.300666 9.31342,-6.022932 17.027,-7.742046 30.12871,-6.714742 14.04987,1.101649 27.97198,4.084223 41.99989,8.997755 l 3.66181,1.282614 v 68.08119 68.08118 l -5.42957,-1.76364 c -22.73634,-7.3852 -45.75895,-10.3904 -57.2691,-7.47549 -4.35901,1.1039 -12.58133,5.20396 -16.67923,8.31709 -4.50651,3.42355 -10.13999,8.99799 -13.96035,13.81404 l -3.13132,3.94743 z"
       id="path3756"
       inkscape:connector-curvature="0" />
    <path
       style="fill:#916f6f;stroke-width:0.50507629"
       d="m 153.43026,186.18262 c -3.11805,-4.15928 -10.13134,-11.17284 -14.39467,-14.39521 -4.24905,-3.21158 -12.44135,-7.31726 -16.80468,-8.42188 -11.49916,-2.91114 -34.665165,0.12186 -57.508921,7.52933 l -5.235913,1.69784 V 104.52185 36.451008 l 2.904188,-1.036519 c 14.133392,-5.044281 28.749907,-8.193401 43.090516,-9.283829 9.2679,-0.70471 14.23858,-0.231511 20.31325,1.933781 9.89009,3.525283 20.2361,12.066286 27.39868,22.61859 l 2.76945,4.080098 -0.12953,67.225661 -0.12953,67.22566 z"
       id="path3758"
       inkscape:connector-curvature="0" />
    <path
       style="fill:#ffcc00;stroke-width:0.50507629"
       d="M 157.97595,122.03597 V 54.639816 l 3.15672,-4.474447 c 4.51755,-6.40332 11.8188,-13.612157 17.52244,-17.300666 9.31342,-6.022932 17.027,-7.742046 30.12871,-6.714742 14.04987,1.101649 27.97198,4.084223 41.99989,8.997755 l 3.66181,1.282614 v 68.08119 68.08118 l -5.42957,-1.76364 c -22.73634,-7.3852 -45.75895,-10.3904 -57.2691,-7.47549 -4.35901,1.1039 -12.58133,5.20396 -16.67923,8.31709 -4.50651,3.42355 -10.13999,8.99799 -13.96035,13.81404 l -3.13132,3.94743 z"
       id="path3760"
       inkscape:connector-curvature="0" />
    <flowRoot
       xml:space="preserve"
       id="flowRoot3766"
       style="font-style:normal;font-weight:normal;font-size:40px;line-height:1.25;font-family:sans-serif;letter-spacing:0px;word-spacing:0px;fill:#ff6600;fill-opacity:1;stroke:none"><flowRegion
         id="flowRegion3768"
         style="fill:#ff6600"><rect
           id="rect3770"
           width="174.25131"
           height="113.64216"
           x="64.649765"
           y="79.852188"
           style="fill:#ff6600" /></flowRegion><flowPara
         id="flowPara3772" /></flowRoot>    <rect
       style="display:inline;fill:#60502a;fill-opacity:1;stroke-width:0.89620447"
       id="rect4921"
       width="249"
       height="239"
       x="31"
       y="-1.1300039"
       inkscape:export-xdpi="25.077551"
       inkscape:export-ydpi="25.077551" />
  </g>
  <g
     id="layer1"
     inkscape:label="Layer 1"
     inkscape:groupmode="layer"
     transform="translate(-249.55,-394.01)"
     style="display:inline">
    <g
       id="g466"
       style="fill:#553203"
       inkscape:export-ydpi="6.2762299"
       inkscape:export-filename="/home/kdm/code/dxp-admin/WebContent/lib/images/book.png"
       transform="matrix(0.08204537,0,0,-0.07707671,259.62102,899.10145)"
       inkscape:export-xdpi="6.2762299">
      <g
         id="g468"
         style="fill:#553203"
         clip-path="url(#clipPath470)">
        <path
           id="path486"
           sodipodi:nodetypes="cccccssccccsscc"
           d="m 2019.5,5773.5 c -312.25,-0.4 -578.25,-100.59 -578.25,-100.59 -28.92,-10.88 -76.23,-10.88 -105.14,0 0,0 -266,100.19 -578.24,100.59 -317.58,0.42 -578.68,-100.26 -578.68,-100.26 -28.828,-11.13 -52.411,-45.49 -52.411,-76.39 v -1397.4 c 0,-30.9 23.684,-47.34 52.637,-36.54 0,0 -587.4,-519.72 578.46,100.86 1386.2,-985.55 -150.95,-46.162 1261.6,0 301.14,2.52 578.44,-100.86 578.44,-100.86 28.96,-10.8 52.64,5.64 52.64,36.54 v 1397.4 c 0,30.9 -23.58,65.26 -52.41,76.39 0,0 -261.1,100.68 -578.67,100.26"
           style="fill:#6c5353"
           inkscape:connector-curvature="0" />
      </g>
    </g>
    <g
       id="g488"
       style="fill:#e6e6e6"
       inkscape:export-ydpi="6.2762299"
       inkscape:export-filename="/home/kdm/code/dxp-admin/WebContent/lib/images/book.png"
       transform="matrix(0.08204537,0,0,-0.07428937,256.89186,892.86097)"
       inkscape:export-xdpi="6.2762299">
      <g
         id="g490"
         style="fill:#e6e6e6"
         clip-path="url(#clipPath492)">
        <path
           id="path504"
           d="m 1389,4235.1 c 0,0 -307.48,109.94 -588.16,112.28 -280.67,2.35 -588.16,-112.28 -588.16,-112.28 v 1407 c 0,0 292.18,112.69 588.16,112.3 295.98,-0.39 588.16,-112.3 588.16,-112.3 v -1407"
           style="fill:#e6e6e6"
           inkscape:connector-curvature="0" />
      </g>
    </g>
    <g
       id="g508"
       style="fill:#808080"
       inkscape:export-ydpi="6.2762299"
       inkscape:export-filename="/home/kdm/code/dxp-admin/WebContent/lib/images/book.png"
       transform="matrix(0.08204537,0,0,-0.07428937,256.89186,892.86097)"
       inkscape:export-xdpi="6.2762299">
      <g
         id="g510"
         style="fill:#808080"
         clip-path="url(#clipPath512)">
        <path
           id="path524"
           d="m 1389,4235.1 c 0,0 -291.49,195.39 -557.99,197.75 -266.48,2.34 -558.44,-112.31 -558.44,-112.31 v 1407 c 0,0 277.42,112.68 558.44,112.3 281.03,-0.39 557.99,-197.77 557.99,-197.77 v -1407"
           style="fill:#808080"
           inkscape:connector-curvature="0" />
      </g>
    </g>
    <g
       id="g528"
       style="fill:#e6e6e6;stroke:#000000;stroke-width:16"
       inkscape:export-ydpi="6.2762299"
       inkscape:export-filename="/home/kdm/code/dxp-admin/WebContent/lib/images/book.png"
       transform="matrix(0.08204537,0,0,-0.07429323,256.89186,892.88052)"
       inkscape:export-xdpi="6.2762299">
      <g
         id="g530"
         style="fill:#e6e6e6;stroke:#000000;stroke-width:16"
         clip-path="url(#clipPath532)">
        <path
           id="path546"
           d="m 1389,4235.1 c 0,0 -178.54,301.54 -445.03,303.91 -266.49,2.33 -558.43,-112.31 -558.43,-112.31 v 1407 c 0,0 277.42,112.67 558.43,112.28 281.02,-0.38 445.03,-303.91 445.03,-303.91 v -1407"
           style="fill:#e6e6e6;stroke:#000000;stroke-width:16"
           inkscape:connector-curvature="0" />
      </g>
    </g>
    <g
       id="g548"
       style="fill:#ffffff"
       inkscape:export-ydpi="6.2762299"
       inkscape:export-filename="/home/kdm/code/dxp-admin/WebContent/lib/images/book.png"
       transform="matrix(0.08204537,0,0,-0.07428937,256.89186,892.86097)"
       inkscape:export-xdpi="6.2762299">
      <g
         id="g550"
         style="fill:#ffffff"
         clip-path="url(#clipPath552)">
        <path
           id="path566"
           d="m 1388.5,4235.1 c 0,0 307.49,109.94 588.16,112.28 280.67,2.35 588.17,-112.28 588.17,-112.28 v 1407 c 0,0 -292.19,112.69 -588.17,112.3 -295.98,-0.39 -588.16,-112.3 -588.16,-112.3 v -1407"
           style="fill:#ffffff"
           inkscape:connector-curvature="0" />
      </g>
    </g>
    <g
       id="g570"
       style="fill:#ffffff;stroke:#000000;stroke-width:8"
       inkscape:export-ydpi="6.2762299"
       inkscape:export-filename="/home/kdm/code/dxp-admin/WebContent/lib/images/book.png"
       transform="matrix(0.08204537,0,0,-0.07428937,256.89186,892.86097)"
       inkscape:export-xdpi="6.2762299">
      <g
         id="g572"
         style="fill:#ffffff;stroke:#000000;stroke-width:8"
         clip-path="url(#clipPath574)">
        <path
           id="path586"
           d="m 1388.5,4235.1 c 0,0 291.5,195.39 557.98,197.75 266.49,2.34 558.45,-112.31 558.45,-112.31 v 1407 c 0,0 -277.43,112.68 -558.45,112.3 -281.01,-0.39 -557.98,-197.77 -557.98,-197.77 v -1407"
           style="fill:#ffffff;stroke:#000000;stroke-width:8"
           inkscape:connector-curvature="0" />
      </g>
    </g>
    <path
       id="path588"
       style="fill:#b3b3b3;stroke-width:0.62456894"
       d="m 370.80364,579.13396 c 0,0 12.8785,-16.65509 34.62577,-18.3887 21.77943,-1.73541 46.42849,4.76641 46.42849,4.76641 l 1.27583,-51.40291 -82.3276,14.23623 v 50.78956"
       inkscape:export-ydpi="6.2762299"
       inkscape:export-filename="/home/kdm/code/dxp-admin/WebContent/lib/images/book.png"
       inkscape:connector-curvature="0"
       inkscape:export-xdpi="6.2762299" />
    <g
       id="g590"
       style="fill:#ffffff;stroke:#000000;stroke-width:16"
       inkscape:export-ydpi="6.2762299"
       inkscape:export-filename="/home/kdm/code/dxp-admin/WebContent/lib/images/book.png"
       transform="matrix(0.08204537,0,0,-0.07429323,256.06026,892.95965)"
       inkscape:export-xdpi="6.2762299">
      <g
         id="g592"
         style="fill:#ffffff;stroke:#000000;stroke-width:16"
         clip-path="url(#clipPath594)">
        <path
           id="path608"
           d="m 1388.5,4235.1 c 0,0 178.55,301.54 445.04,303.91 266.5,2.33 558.43,-112.31 558.43,-112.31 v 1407 c 0,0 -277.41,112.67 -558.43,112.28 -281.02,-0.38 -445.04,-303.91 -445.04,-303.91 v -1407"
           style="fill:#ffffff;stroke:#000000;stroke-width:16"
           inkscape:connector-curvature="0" />
      </g>
    </g>
    <flowRoot
       xml:space="preserve"
       id="flowRoot3774"
       style="font-style:normal;font-weight:normal;font-size:40px;line-height:1.25;font-family:sans-serif;letter-spacing:0px;word-spacing:0px;fill:#ff7f2a;fill-opacity:1;stroke:none"
       transform="translate(216.55,392.14)"><flowRegion
         id="flowRegion3776"
         style="fill:#ff7f2a"><rect
           id="rect3778"
           width="118.18786"
           height="59.598995"
           x="114.65231"
           y="75.811577"
           style="fill:#ff7f2a" /></flowRegion><flowPara
         id="flowPara3780">asfasasfasfasdfasfa&lt;asfafasfasasfdasfasfda</flowPara><flowPara
         id="flowPara3782" /></flowRoot>    <flowRoot
       xml:space="preserve"
       id="flowRoot3792"
       style="font-style:normal;font-weight:normal;font-size:85.33333588px;line-height:1.25;font-family:sans-serif;letter-spacing:0px;word-spacing:0px;fill:#000000;fill-opacity:1;stroke:none"
       transform="translate(216.55,392.14)"><flowRegion
         id="flowRegion3794"
         style="font-size:85.33333588px;line-height:1.25"><rect
           id="rect3796"
           width="84.221519"
           height="46.145527"
           x="72.73098"
           y="80.862343"
           style="font-size:85.33333588px;line-height:1.25" /></flowRegion><flowPara
         id="flowPara3798" /></flowRoot>    <flowRoot
       xml:space="preserve"
       id="flowRoot3800"
       style="font-style:normal;font-weight:normal;font-size:40px;line-height:1.25;font-family:sans-serif;letter-spacing:0px;word-spacing:0px;fill:#000000;fill-opacity:1;stroke:none"
       transform="translate(216.55,392.14)"><flowRegion
         id="flowRegion3802"><rect
           id="rect3804"
           width="76.392738"
           height="78.608315"
           x="156.9525"
           y="127.00787" /></flowRegion><flowPara
         id="flowPara3806" /></flowRoot>  </g>
  <g
     inkscape:groupmode="layer"
     id="layer3"
     inkscape:label="Layer 3"
     style="display:inline"
     transform="translate(-33,-1.8699961)">
    <flowRoot
       xml:space="preserve"
       id="flowRoot883"
       style="font-style:normal;font-variant:normal;font-weight:bold;font-stretch:normal;font-size:40px;line-height:1.25;font-family:sans-serif;-inkscape-font-specification:'sans-serif Bold';letter-spacing:0px;word-spacing:0px;fill:#d43c00;fill-opacity:1;stroke:none"
       transform="translate(33,1.8699961)"><flowRegion
         id="flowRegion885"
         style="font-style:normal;font-variant:normal;font-weight:bold;font-stretch:normal;font-family:sans-serif;-inkscape-font-specification:'sans-serif Bold';fill:#d43c00;fill-opacity:1"><rect
           id="rect887"
           width="202.26297"
           height="154.22481"
           x="26.486076"
           y="34.581013"
           style="font-style:normal;font-variant:normal;font-weight:bold;font-stretch:normal;font-family:sans-serif;-inkscape-font-specification:'sans-serif Bold';fill:#d43c00;fill-opacity:1" /></flowRegion><flowPara
         id="flowPara889"></flowPara></flowRoot>    <g
       aria-label="&lt;f:"
       style="font-style:normal;font-weight:normal;font-size:67.22421265px;line-height:1.25;font-family:sans-serif;letter-spacing:0px;word-spacing:0px;fill:#efab00;fill-opacity:1;stroke:none;stroke-width:1.68060517"
       id="text893"
       transform="matrix(1.051303,0,0,1.051303,-6.2125037,-9.228039)">
      <path
         style="font-size:161.33810425px;fill:#efab00;fill-opacity:1;stroke-width:1.68060517"
         d="m 143.41406,36.955078 c -35.49534,12.875284 -70.991539,25.748193 -106.486326,38.625 1.548668,6.230486 -2.413866,14.464537 2.433594,19.44336 35.578123,12.904302 71.156262,25.808562 106.734372,38.712892 0,-7.62435 0,-15.2487 0,-22.87305 C 121.65037,102.22064 97.206492,93.573902 72.761719,84.929688 97.206416,76.23708 121.65083,67.543673 146.0957,58.851562 c 0,-7.623046 0,-15.246093 0,-22.86914 -0.89388,0.324219 -1.78776,0.648437 -2.68164,0.972656 z"
         id="path895"
         inkscape:connector-curvature="0" />
      <path
         style="font-size:161.33810425px;fill:#efab00;fill-opacity:1;stroke-width:1.68060517"
         d="m 207.38477,8.8535156 c -12.6607,-1.0294181 -28.10652,3.8209164 -32.3418,17.0781254 -2.12524,5.544696 -2.15114,11.920716 -2.47461,17.486328 -4.38545,-0.216337 -13.30145,-2.345709 -13.96094,4.349609 0.38738,5.051574 -1.75863,13.219241 4.9336,15.054688 2.93754,1.285679 6.42908,-1.788866 9.01171,-0.34375 0.59011,8.544705 -0.16362,17.397338 0.20704,26.107422 0,16.949872 0,33.899742 0,50.849612 7.52408,0 15.04817,0 22.57226,0 0,-25.6556 0,-51.311201 0,-76.9668 8.14714,0 16.29427,0 24.44141,0 -2.92166,-5.774954 2.8202,-13.925658 -2.73633,-18.564453 -6.84064,-2.344867 -15.5314,0.714901 -21.7207,-1.216797 -0.29336,-4.988062 -0.39157,-13.695819 6.57031,-13.533203 7.18702,-0.695987 14.41228,0.07105 21.61328,-0.308594 -2.53582,-6.200104 2.91133,-14.578602 -2.87891,-19.4589842 -4.09546,-1.289763 -8.92887,-0.1331253 -13.23632,-0.5332032 z"
         id="path897"
         inkscape:connector-curvature="0" />
      <path
         style="font-size:161.33810425px;fill:#efab00;fill-opacity:1;stroke-width:1.68060517"
         d="m 225.14648,50.009766 c 0,8.669922 0,17.339843 0,26.009765 8.20769,0 16.41537,0 24.62305,0 0,-9.336588 0,-18.673177 0,-28.009765 -8.20768,0 -16.41536,0 -24.62305,0 v 1 z m 0,63.416014 c 0,8.66992 0,17.33984 0,26.00977 8.20769,0 16.41537,0 24.62305,0 0,-9.33659 0,-18.67318 0,-28.00977 -8.20768,0 -16.41536,0 -24.62305,0 v 1 z"
         id="path899"
         inkscape:connector-curvature="0" />
    </g>
  </g>
  <metadata
     id="metadata41">
    <rdf:RDF>
      <cc:Work>
        <dc:format>image/svg+xml</dc:format>
        <dc:type
           rdf:resource="http://purl.org/dc/dcmitype/StillImage" />
        <cc:license
           rdf:resource="http://creativecommons.org/publicdomain/zero/1.0/" />
        <dc:publisher>
          <cc:Agent
             rdf:about="http://openclipart.org/">
            <dc:title>Openclipart</dc:title>
          </cc:Agent>
        </dc:publisher>
        <dc:title></dc:title>
        <dc:date>2012-04-20T12:35:01</dc:date>
        <dc:description>a simple open book</dc:description>
        <dc:source>https://openclipart.org/detail/169614/open-book-by-dynnamitt</dc:source>
        <dc:creator>
          <cc:Agent>
            <dc:title>dynnamitt</dc:title>
          </cc:Agent>
        </dc:creator>
        <dc:subject>
          <rdf:Bag>
            <rdf:li>book</rdf:li>
            <rdf:li>open</rdf:li>
          </rdf:Bag>
        </dc:subject>
      </cc:Work>
      <cc:License
         rdf:about="http://creativecommons.org/publicdomain/zero/1.0/">
        <cc:permits
           rdf:resource="http://creativecommons.org/ns#Reproduction" />
        <cc:permits
           rdf:resource="http://creativecommons.org/ns#Distribution" />
        <cc:permits
           rdf:resource="http://creativecommons.org/ns#DerivativeWorks" />
      </cc:License>
    </rdf:RDF>
  </metadata>
</svg>
